# xmcd CD database file
# Copyright (C) 1996 Ti Kan
#
# Track frame offsets:
#	150
#	12515
#	25410
#	34900
#	67990
#	80823
#	94083
#	109568
#	119958
#	140395
#
# Disc length: 2281 seconds
#
# Revision: 2
# Processed by: cddbd v1.4PL0 Copyright (c) Steve Scherf et al.
# Submitted via: Gronk 1.4
#
DISCID=8a08e70a
DTITLE=James Cotton - Cut You Loose!
DYEAR=1900
DGENRE=blues
TTITLE0=River's Invitation
TTITLE1=Honest I Do
TTITLE2=Got To Get You Off My Mind
TTITLE3=Coast Blues
TTITLE4=Next Time You See Me
TTITLE5=Cut You Loose
TTITLE6=Ain't Nobody's Business
TTITLE7=Set A Date
TTITLE8=Slippin' And Slidin'
TTITLE9=Negative 10-4
EXTD=
EXTT0=
EXTT1=
EXTT2=
EXTT3=
EXTT4=
EXTT5=
EXTT6=
EXTT7=
EXTT8=
EXTT9=
PLAYORDER=
